<?xml version="1.0" encoding="UTF-8" standalone="no"?>
<!DOCTYPE svg PUBLIC "-//W3C//DTD SVG 1.1//EN" "http://www.w3.org/Graphics/SVG/1.1/DTD/svg11.dtd">
<svg version="1.1" xmlns="http://www.w3.org/2000/svg" xmlns:xlink="http://www.w3.org/1999/xlink" preserveAspectRatio="xMidYMid meet" viewBox="0 0 110 110" width="110" height="110"><defs><path d="M62.7 5.01L62.8 5.02L62.89 5.04L62.98 5.06L63.07 5.09L63.15 5.12L63.24 5.16L63.32 5.2L63.39 5.25L63.47 5.3L63.54 5.35L63.61 5.41L63.68 5.47L63.75 5.53L63.81 5.6L63.88 5.68L63.94 5.75L64 5.83L64.06 5.92L64.11 6L64.17 6.09L64.22 6.18L64.28 6.28L64.33 6.38L64.38 6.48L64.43 6.58L64.47 6.69L64.52 6.8L64.57 6.91L64.61 7.02L64.66 7.14L64.7 7.26L64.75 7.37L64.79 7.5L64.83 7.62L64.87 7.74L64.92 7.87L64.96 8L65 8.13L67.16 16.24L67.84 16.45L69.34 16.98L70.81 17.57L72.26 18.21L73.67 18.91L73.79 18.97L81.07 14.75L81.2 14.69L81.32 14.63L81.43 14.57L81.55 14.51L81.67 14.46L81.79 14.4L81.9 14.35L82.01 14.3L82.13 14.25L82.24 14.2L82.35 14.15L82.46 14.11L82.57 14.07L82.68 14.03L82.79 13.99L82.89 13.96L83 13.93L83.1 13.9L83.2 13.88L83.3 13.86L83.4 13.84L83.5 13.83L83.6 13.82L83.7 13.81L83.79 13.81L83.88 13.81L83.98 13.81L84.07 13.82L84.16 13.83L84.25 13.85L84.33 13.88L84.42 13.9L84.5 13.94L84.59 13.97L84.67 14.02L84.75 14.06L84.83 14.12L84.9 14.18L84.98 14.24L85.05 14.31L95.66 24.92L95.73 24.99L95.79 25.07L95.85 25.15L95.91 25.23L95.96 25.31L96 25.39L96.04 25.48L96.08 25.56L96.11 25.65L96.13 25.74L96.15 25.83L96.17 25.92L96.18 26.02L96.19 26.11L96.19 26.21L96.19 26.31L96.19 26.41L96.18 26.51L96.17 26.61L96.15 26.71L96.14 26.81L96.11 26.92L96.09 27.02L96.06 27.13L96.03 27.23L95.99 27.34L95.95 27.45L95.91 27.56L95.87 27.67L95.82 27.78L95.77 27.89L95.72 28L95.66 28.11L95.6 28.22L95.54 28.33L95.48 28.45L95.42 28.56L95.35 28.67L95.29 28.78L95.22 28.9L91 36.17L91.09 36.33L91.79 37.74L92.43 39.19L93.02 40.66L93.55 42.16L93.76 42.84L101.88 45L102 45.03L102.13 45.06L102.26 45.1L102.38 45.13L102.5 45.17L102.63 45.2L102.74 45.24L102.86 45.28L102.98 45.32L103.09 45.37L103.2 45.41L103.31 45.46L103.42 45.5L103.52 45.55L103.62 45.6L103.72 45.66L103.82 45.71L103.91 45.77L104 45.82L104.08 45.88L104.17 45.94L104.25 46.01L104.32 46.07L104.4 46.14L104.47 46.21L104.53 46.28L104.59 46.35L104.65 46.43L104.7 46.5L104.75 46.58L104.8 46.66L104.84 46.75L104.88 46.83L104.91 46.92L104.94 47.01L104.96 47.11L104.98 47.2L104.99 47.3L105 47.4L105 47.5L105 62.5L105 62.6L104.99 62.7L104.98 62.8L104.96 62.89L104.94 62.98L104.91 63.07L104.88 63.15L104.84 63.24L104.8 63.32L104.75 63.39L104.7 63.47L104.65 63.54L104.59 63.61L104.53 63.68L104.47 63.75L104.4 63.81L104.32 63.88L104.25 63.94L104.17 64L104.08 64.06L104 64.11L103.91 64.17L103.82 64.22L103.72 64.28L103.62 64.33L103.52 64.38L103.42 64.43L103.31 64.47L103.2 64.52L103.09 64.57L102.98 64.61L102.86 64.66L102.74 64.7L102.63 64.75L102.5 64.79L102.38 64.83L102.26 64.87L102.13 64.92L102 64.96L101.88 65L93.76 67.16L93.55 67.84L93.02 69.34L92.43 70.81L91.79 72.26L91.09 73.67L91.01 73.81L95.22 81.07L95.29 81.19L95.35 81.3L95.42 81.41L95.48 81.52L95.54 81.64L95.6 81.75L95.66 81.86L95.72 81.97L95.77 82.08L95.82 82.19L95.87 82.3L95.91 82.41L95.95 82.52L95.99 82.63L96.03 82.74L96.06 82.84L96.09 82.95L96.11 83.05L96.14 83.16L96.15 83.26L96.17 83.36L96.18 83.46L96.19 83.56L96.19 83.66L96.19 83.76L96.19 83.86L96.18 83.95L96.17 84.05L96.15 84.14L96.13 84.23L96.11 84.32L96.08 84.41L96.04 84.49L96 84.58L95.96 84.66L95.91 84.74L95.85 84.82L95.79 84.9L95.73 84.98L95.66 85.05L85.05 95.66L84.98 95.73L84.9 95.79L84.83 95.85L84.75 95.91L84.67 95.95L84.59 96L84.5 96.03L84.42 96.07L84.33 96.09L84.25 96.12L84.16 96.14L84.07 96.15L83.98 96.16L83.88 96.16L83.79 96.16L83.7 96.16L83.6 96.15L83.5 96.14L83.4 96.13L83.3 96.11L83.2 96.09L83.1 96.07L83 96.04L82.89 96.01L82.79 95.98L82.68 95.94L82.57 95.9L82.46 95.86L82.35 95.82L82.24 95.77L82.13 95.72L82.01 95.67L81.9 95.62L81.79 95.57L81.67 95.51L81.55 95.46L81.43 95.4L81.32 95.34L81.2 95.28L81.07 95.22L73.81 91.01L73.67 91.09L72.26 91.79L70.81 92.43L69.34 93.02L67.84 93.55L67.16 93.76L65 101.88L64.96 102L64.92 102.13L64.87 102.26L64.83 102.38L64.79 102.5L64.75 102.63L64.7 102.74L64.66 102.86L64.61 102.98L64.57 103.09L64.52 103.2L64.47 103.31L64.43 103.42L64.38 103.52L64.33 103.62L64.28 103.72L64.22 103.82L64.17 103.91L64.11 104L64.06 104.08L64 104.17L63.94 104.25L63.88 104.32L63.81 104.4L63.75 104.47L63.68 104.53L63.61 104.59L63.54 104.65L63.47 104.7L63.39 104.75L63.32 104.8L63.24 104.84L63.15 104.88L63.07 104.91L62.98 104.94L62.89 104.96L62.8 104.98L62.7 104.99L62.6 105L62.5 105L47.5 105L47.4 105L47.3 104.99L47.2 104.98L47.11 104.96L47.01 104.94L46.92 104.91L46.83 104.88L46.75 104.84L46.66 104.8L46.58 104.75L46.5 104.7L46.43 104.65L46.35 104.59L46.28 104.53L46.21 104.47L46.14 104.4L46.07 104.32L46.01 104.25L45.94 104.17L45.88 104.08L45.82 104L45.77 103.91L45.71 103.82L45.66 103.72L45.6 103.62L45.55 103.52L45.5 103.42L45.46 103.31L45.41 103.2L45.37 103.09L45.32 102.98L45.28 102.86L45.24 102.74L45.2 102.63L45.17 102.5L45.13 102.38L45.1 102.26L45.06 102.13L45.03 102L45 101.88L42.84 93.76L42.16 93.55L40.66 93.02L39.19 92.43L37.74 91.79L36.33 91.09L36.16 91L28.93 95.19L28.81 95.26L28.7 95.32L28.59 95.39L28.48 95.45L28.36 95.51L28.25 95.57L28.14 95.63L28.03 95.69L27.92 95.74L27.81 95.79L27.7 95.84L27.59 95.88L27.48 95.92L27.37 95.96L27.26 96L27.16 96.03L27.05 96.06L26.95 96.08L26.84 96.11L26.74 96.12L26.64 96.14L26.54 96.15L26.44 96.16L26.34 96.16L26.24 96.16L26.14 96.16L26.05 96.15L25.95 96.14L25.86 96.12L25.77 96.1L25.68 96.08L25.59 96.05L25.51 96.01L25.42 95.97L25.34 95.93L25.26 95.88L25.18 95.82L25.1 95.76L25.02 95.7L24.95 95.63L14.34 85.02L14.27 84.95L14.21 84.87L14.15 84.8L14.09 84.72L14.05 84.64L14 84.56L13.97 84.47L13.93 84.39L13.91 84.3L13.88 84.22L13.86 84.13L13.85 84.04L13.84 83.95L13.84 83.85L13.84 83.76L13.84 83.67L13.85 83.57L13.86 83.47L13.87 83.37L13.89 83.27L13.91 83.17L13.93 83.07L13.96 82.97L13.99 82.86L14.02 82.76L14.06 82.65L14.1 82.54L14.14 82.43L14.18 82.32L14.23 82.21L14.28 82.1L14.33 81.99L14.38 81.87L14.43 81.76L14.49 81.64L14.54 81.52L14.6 81.4L14.66 81.29L14.72 81.17L14.78 81.04L18.98 73.8L18.91 73.67L18.21 72.26L17.57 70.81L16.98 69.34L16.45 67.84L16.24 67.16L8.13 65L8 64.96L7.87 64.92L7.74 64.87L7.62 64.83L7.5 64.79L7.37 64.75L7.26 64.7L7.14 64.66L7.02 64.61L6.91 64.57L6.8 64.52L6.69 64.47L6.58 64.43L6.48 64.38L6.38 64.33L6.28 64.28L6.18 64.22L6.09 64.17L6 64.11L5.92 64.06L5.83 64L5.75 63.94L5.68 63.88L5.6 63.81L5.53 63.75L5.47 63.68L5.41 63.61L5.35 63.54L5.3 63.47L5.25 63.39L5.2 63.32L5.16 63.24L5.12 63.15L5.09 63.07L5.06 62.98L5.04 62.89L5.02 62.8L5.01 62.7L5 62.6L5 62.5L5 47.5L5 47.4L5.01 47.3L5.02 47.2L5.04 47.11L5.06 47.01L5.09 46.92L5.12 46.83L5.16 46.75L5.2 46.66L5.25 46.58L5.3 46.5L5.35 46.43L5.41 46.35L5.47 46.28L5.53 46.21L5.6 46.14L5.68 46.07L5.75 46.01L5.83 45.94L5.92 45.88L6 45.82L6.09 45.77L6.18 45.71L6.28 45.66L6.38 45.6L6.48 45.55L6.58 45.5L6.69 45.46L6.8 45.41L6.91 45.37L7.02 45.32L7.14 45.28L7.26 45.24L7.37 45.2L7.5 45.17L7.62 45.13L7.74 45.1L7.87 45.06L8 45.03L8.13 45L16.24 42.84L16.45 42.16L16.98 40.66L17.57 39.19L18.21 37.74L18.91 36.33L18.99 36.19L14.78 28.93L14.72 28.8L14.66 28.68L14.6 28.57L14.54 28.45L14.49 28.33L14.43 28.21L14.38 28.1L14.33 27.99L14.28 27.87L14.23 27.76L14.18 27.65L14.14 27.54L14.1 27.43L14.06 27.32L14.02 27.21L13.99 27.11L13.96 27L13.93 26.9L13.91 26.8L13.89 26.7L13.87 26.6L13.86 26.5L13.85 26.4L13.84 26.3L13.84 26.21L13.84 26.12L13.84 26.02L13.85 25.93L13.86 25.84L13.88 25.75L13.91 25.67L13.93 25.58L13.97 25.5L14 25.41L14.05 25.33L14.09 25.25L14.15 25.17L14.21 25.1L14.27 25.02L14.34 24.95L24.95 14.34L25.02 14.27L25.1 14.21L25.18 14.15L25.26 14.09L25.34 14.04L25.42 14L25.51 13.96L25.59 13.92L25.68 13.89L25.77 13.87L25.86 13.85L25.95 13.83L26.05 13.82L26.14 13.81L26.24 13.81L26.34 13.81L26.44 13.81L26.54 13.82L26.64 13.83L26.74 13.85L26.84 13.86L26.95 13.89L27.05 13.91L27.16 13.94L27.26 13.97L27.37 14.01L27.48 14.05L27.59 14.09L27.7 14.13L27.81 14.18L27.92 14.23L28.03 14.28L28.14 14.34L28.25 14.4L28.36 14.46L28.48 14.52L28.59 14.58L28.7 14.65L28.81 14.71L28.93 14.78L36.19 18.99L36.33 18.91L37.74 18.21L39.19 17.57L40.66 16.98L42.16 16.45L42.84 16.24L45 8.13L45.03 8L45.06 7.87L45.1 7.74L45.13 7.62L45.17 7.5L45.2 7.37L45.24 7.26L45.28 7.14L45.32 7.02L45.37 6.91L45.41 6.8L45.46 6.69L45.5 6.58L45.55 6.48L45.6 6.38L45.66 6.28L45.71 6.18L45.77 6.09L45.82 6L45.88 5.92L45.94 5.83L46.01 5.75L46.07 5.68L46.14 5.6L46.21 5.53L46.28 5.47L46.35 5.41L46.43 5.35L46.5 5.3L46.58 5.25L46.66 5.2L46.75 5.16L46.83 5.12L46.92 5.09L47.01 5.06L47.11 5.04L47.2 5.02L47.3 5.01L47.4 5L47.5 5L62.5 5L62.6 5L62.7 5.01ZM53.21 33.2L52.32 33.29L51.45 33.41L50.59 33.57L49.74 33.76L48.91 33.98L48.09 34.24L47.28 34.53L46.49 34.84L45.71 35.19L44.95 35.57L44.2 35.97L43.48 36.4L42.77 36.86L42.08 37.35L41.41 37.86L40.76 38.39L40.14 38.95L39.53 39.53L38.95 40.14L38.39 40.76L37.86 41.41L37.35 42.08L36.86 42.77L36.4 43.48L35.97 44.2L35.57 44.95L35.19 45.71L34.84 46.49L34.53 47.28L34.24 48.09L33.98 48.91L33.76 49.74L33.57 50.59L33.41 51.45L33.29 52.32L33.2 53.21L33.14 54.1L33.13 55L33.14 55.9L33.2 56.79L33.29 57.68L33.41 58.55L33.57 59.41L33.76 60.26L33.98 61.09L34.24 61.91L34.53 62.72L34.84 63.51L35.19 64.29L35.57 65.05L35.97 65.8L36.4 66.52L36.86 67.23L37.35 67.92L37.86 68.59L38.39 69.24L38.95 69.86L39.53 70.47L40.14 71.05L40.76 71.61L41.41 72.14L42.08 72.65L42.77 73.14L43.48 73.6L44.2 74.03L44.95 74.43L45.71 74.81L46.49 75.16L47.28 75.47L48.09 75.76L48.91 76.02L49.74 76.24L50.59 76.43L51.45 76.59L52.32 76.71L53.21 76.8L54.1 76.86L55 76.88L55.9 76.86L56.79 76.8L57.68 76.71L58.55 76.59L59.41 76.43L60.26 76.24L61.09 76.02L61.91 75.76L62.72 75.47L63.51 75.16L64.29 74.81L65.05 74.43L65.8 74.03L66.52 73.6L67.23 73.14L67.92 72.65L68.59 72.14L69.24 71.61L69.86 71.05L70.47 70.47L71.05 69.86L71.61 69.24L72.14 68.59L72.65 67.92L73.14 67.23L73.6 66.52L74.03 65.8L74.43 65.05L74.81 64.29L75.16 63.51L75.47 62.72L75.76 61.91L76.02 61.09L76.24 60.26L76.43 59.41L76.59 58.55L76.71 57.68L76.8 56.79L76.86 55.9L76.88 55L76.86 54.1L76.8 53.21L76.71 52.32L76.59 51.45L76.43 50.59L76.24 49.74L76.02 48.91L75.76 48.09L75.47 47.28L75.16 46.49L74.81 45.71L74.43 44.95L74.03 44.2L73.6 43.48L73.14 42.77L72.65 42.08L72.14 41.41L71.61 40.76L71.05 40.14L70.47 39.53L69.86 38.95L69.24 38.39L68.59 37.86L67.92 37.35L67.23 36.86L66.52 36.4L65.8 35.97L65.05 35.57L64.29 35.19L63.51 34.84L62.72 34.53L61.91 34.24L61.09 33.98L60.26 33.76L59.41 33.57L58.55 33.41L57.68 33.29L56.79 33.2L55.9 33.14L55 33.13L54.1 33.14L53.21 33.2Z" id="a2KkYNNQGS"></path></defs><g><g><use xlink:href="#a2KkYNNQGS" opacity="1" fill="#09e" fill-opacity="1"></use><g><filter id="shadow16365564" x="-6" y="-6" width="125" height="125" filterUnits="userSpaceOnUse" primitiveUnits="userSpaceOnUse"><feFlood></feFlood><feComposite in2="SourceAlpha" operator="out"></feComposite><feGaussianBlur stdDeviation="1"></feGaussianBlur><feOffset dx="-3" dy="-3" result="afterOffset"></feOffset><feFlood flood-color="#016" flood-opacity="0.8"></feFlood><feComposite in2="afterOffset" operator="in"></feComposite><feMorphology operator="dilate" radius="1"></feMorphology><feComposite in2="SourceAlpha" operator="in"></feComposite></filter><path d="M62.7 5.01L62.8 5.02L62.89 5.04L62.98 5.06L63.07 5.09L63.15 5.12L63.24 5.16L63.32 5.2L63.39 5.25L63.47 5.3L63.54 5.35L63.61 5.41L63.68 5.47L63.75 5.53L63.81 5.6L63.88 5.68L63.94 5.75L64 5.83L64.06 5.92L64.11 6L64.17 6.09L64.22 6.18L64.28 6.28L64.33 6.38L64.38 6.48L64.43 6.58L64.47 6.69L64.52 6.8L64.57 6.91L64.61 7.02L64.66 7.14L64.7 7.26L64.75 7.37L64.79 7.5L64.83 7.62L64.87 7.74L64.92 7.87L64.96 8L65 8.13L67.16 16.24L67.84 16.45L69.34 16.98L70.81 17.57L72.26 18.21L73.67 18.91L73.79 18.97L81.07 14.75L81.2 14.69L81.32 14.63L81.43 14.57L81.55 14.51L81.67 14.46L81.79 14.4L81.9 14.35L82.01 14.3L82.13 14.25L82.24 14.2L82.35 14.15L82.46 14.11L82.57 14.07L82.68 14.03L82.79 13.99L82.89 13.96L83 13.93L83.1 13.9L83.2 13.88L83.3 13.86L83.4 13.84L83.5 13.83L83.6 13.82L83.7 13.81L83.79 13.81L83.88 13.81L83.98 13.81L84.07 13.82L84.16 13.83L84.25 13.85L84.33 13.88L84.42 13.9L84.5 13.94L84.59 13.97L84.67 14.02L84.75 14.06L84.83 14.12L84.9 14.18L84.98 14.24L85.05 14.31L95.66 24.92L95.73 24.99L95.79 25.07L95.85 25.15L95.91 25.23L95.96 25.31L96 25.39L96.04 25.48L96.08 25.56L96.11 25.65L96.13 25.74L96.15 25.83L96.17 25.92L96.18 26.02L96.19 26.11L96.19 26.21L96.19 26.31L96.19 26.41L96.18 26.51L96.17 26.61L96.15 26.71L96.14 26.81L96.11 26.92L96.09 27.02L96.06 27.13L96.03 27.23L95.99 27.34L95.95 27.45L95.91 27.56L95.87 27.67L95.82 27.78L95.77 27.89L95.72 28L95.66 28.11L95.6 28.22L95.54 28.33L95.48 28.45L95.42 28.56L95.35 28.67L95.29 28.78L95.22 28.9L91 36.17L91.09 36.33L91.79 37.74L92.43 39.19L93.02 40.66L93.55 42.16L93.76 42.84L101.88 45L102 45.03L102.13 45.06L102.26 45.1L102.38 45.13L102.5 45.17L102.63 45.2L102.74 45.24L102.86 45.28L102.98 45.32L103.09 45.37L103.2 45.41L103.31 45.46L103.42 45.5L103.52 45.55L103.62 45.6L103.72 45.66L103.82 45.71L103.91 45.77L104 45.82L104.08 45.88L104.17 45.94L104.25 46.01L104.32 46.07L104.4 46.14L104.47 46.21L104.53 46.28L104.59 46.35L104.65 46.43L104.7 46.5L104.75 46.58L104.8 46.66L104.84 46.75L104.88 46.83L104.91 46.92L104.94 47.01L104.96 47.11L104.98 47.2L104.99 47.3L105 47.4L105 47.5L105 62.5L105 62.6L104.99 62.7L104.98 62.8L104.96 62.89L104.94 62.98L104.91 63.07L104.88 63.15L104.84 63.24L104.8 63.32L104.75 63.39L104.7 63.47L104.65 63.54L104.59 63.61L104.53 63.68L104.47 63.75L104.4 63.81L104.32 63.88L104.25 63.94L104.17 64L104.08 64.06L104 64.11L103.91 64.17L103.82 64.22L103.72 64.28L103.62 64.33L103.52 64.38L103.42 64.43L103.31 64.47L103.2 64.52L103.09 64.57L102.98 64.61L102.86 64.66L102.74 64.7L102.63 64.75L102.5 64.79L102.38 64.83L102.26 64.87L102.13 64.92L102 64.96L101.88 65L93.76 67.16L93.55 67.84L93.02 69.34L92.43 70.81L91.79 72.26L91.09 73.67L91.01 73.81L95.22 81.07L95.29 81.19L95.35 81.3L95.42 81.41L95.48 81.52L95.54 81.64L95.6 81.75L95.66 81.86L95.72 81.97L95.77 82.08L95.82 82.19L95.87 82.3L95.91 82.41L95.95 82.52L95.99 82.63L96.03 82.74L96.06 82.84L96.09 82.95L96.11 83.05L96.14 83.16L96.15 83.26L96.17 83.36L96.18 83.46L96.19 83.56L96.19 83.66L96.19 83.76L96.19 83.86L96.18 83.95L96.17 84.05L96.15 84.14L96.13 84.23L96.11 84.32L96.08 84.41L96.04 84.49L96 84.58L95.96 84.66L95.91 84.74L95.85 84.82L95.79 84.9L95.73 84.98L95.66 85.05L85.05 95.66L84.98 95.73L84.9 95.79L84.83 95.85L84.75 95.91L84.67 95.95L84.59 96L84.5 96.03L84.42 96.07L84.33 96.09L84.25 96.12L84.16 96.14L84.07 96.15L83.98 96.16L83.88 96.16L83.79 96.16L83.7 96.16L83.6 96.15L83.5 96.14L83.4 96.13L83.3 96.11L83.2 96.09L83.1 96.07L83 96.04L82.89 96.01L82.79 95.98L82.68 95.94L82.57 95.9L82.46 95.86L82.35 95.82L82.24 95.77L82.13 95.72L82.01 95.67L81.9 95.62L81.79 95.57L81.67 95.51L81.55 95.46L81.43 95.4L81.32 95.34L81.2 95.28L81.07 95.22L73.81 91.01L73.67 91.09L72.26 91.79L70.81 92.43L69.34 93.02L67.84 93.55L67.16 93.76L65 101.88L64.96 102L64.92 102.13L64.87 102.26L64.83 102.38L64.79 102.5L64.75 102.63L64.7 102.74L64.66 102.86L64.61 102.98L64.57 103.09L64.52 103.2L64.47 103.31L64.43 103.42L64.38 103.52L64.33 103.62L64.28 103.72L64.22 103.82L64.17 103.91L64.11 104L64.06 104.08L64 104.17L63.94 104.25L63.88 104.32L63.81 104.4L63.75 104.47L63.68 104.53L63.61 104.59L63.54 104.65L63.47 104.7L63.39 104.75L63.32 104.8L63.24 104.84L63.15 104.88L63.07 104.91L62.98 104.94L62.89 104.96L62.8 104.98L62.7 104.99L62.6 105L62.5 105L47.5 105L47.4 105L47.3 104.99L47.2 104.98L47.11 104.96L47.01 104.94L46.92 104.91L46.83 104.88L46.75 104.84L46.66 104.8L46.58 104.75L46.5 104.7L46.43 104.65L46.35 104.59L46.28 104.53L46.21 104.47L46.14 104.4L46.07 104.32L46.01 104.25L45.94 104.17L45.88 104.08L45.82 104L45.77 103.91L45.71 103.82L45.66 103.72L45.6 103.62L45.55 103.52L45.5 103.42L45.46 103.31L45.41 103.2L45.37 103.09L45.32 102.98L45.28 102.86L45.24 102.74L45.2 102.63L45.17 102.5L45.13 102.38L45.1 102.26L45.06 102.13L45.03 102L45 101.88L42.84 93.76L42.16 93.55L40.66 93.02L39.19 92.43L37.74 91.79L36.33 91.09L36.16 91L28.93 95.19L28.81 95.26L28.7 95.32L28.59 95.39L28.48 95.45L28.36 95.51L28.25 95.57L28.14 95.63L28.03 95.69L27.92 95.74L27.81 95.79L27.7 95.84L27.59 95.88L27.48 95.92L27.37 95.96L27.26 96L27.16 96.03L27.05 96.06L26.95 96.08L26.84 96.11L26.74 96.12L26.64 96.14L26.54 96.15L26.44 96.16L26.34 96.16L26.24 96.16L26.14 96.16L26.05 96.15L25.95 96.14L25.86 96.12L25.77 96.1L25.68 96.08L25.59 96.05L25.51 96.01L25.42 95.97L25.34 95.93L25.26 95.88L25.18 95.82L25.1 95.76L25.02 95.7L24.95 95.63L14.34 85.02L14.27 84.95L14.21 84.87L14.15 84.8L14.09 84.72L14.05 84.64L14 84.56L13.97 84.47L13.93 84.39L13.91 84.3L13.88 84.22L13.86 84.13L13.85 84.04L13.84 83.95L13.84 83.85L13.84 83.76L13.84 83.67L13.85 83.57L13.86 83.47L13.87 83.37L13.89 83.27L13.91 83.17L13.93 83.07L13.96 82.97L13.99 82.86L14.02 82.76L14.06 82.65L14.1 82.54L14.14 82.43L14.18 82.32L14.23 82.21L14.28 82.1L14.33 81.99L14.38 81.87L14.43 81.76L14.49 81.64L14.54 81.52L14.6 81.4L14.66 81.29L14.72 81.17L14.78 81.04L18.98 73.8L18.91 73.67L18.21 72.26L17.57 70.81L16.98 69.34L16.45 67.84L16.24 67.16L8.13 65L8 64.96L7.87 64.92L7.74 64.87L7.62 64.83L7.5 64.79L7.37 64.75L7.26 64.7L7.14 64.66L7.02 64.61L6.91 64.57L6.8 64.52L6.69 64.47L6.58 64.43L6.48 64.38L6.38 64.33L6.28 64.28L6.18 64.22L6.09 64.17L6 64.11L5.92 64.06L5.83 64L5.75 63.94L5.68 63.88L5.6 63.81L5.53 63.75L5.47 63.68L5.41 63.61L5.35 63.54L5.3 63.47L5.25 63.39L5.2 63.32L5.16 63.24L5.12 63.15L5.09 63.07L5.06 62.98L5.04 62.89L5.02 62.8L5.01 62.7L5 62.6L5 62.5L5 47.5L5 47.4L5.01 47.3L5.02 47.2L5.04 47.11L5.06 47.01L5.09 46.92L5.12 46.83L5.16 46.75L5.2 46.66L5.25 46.58L5.3 46.5L5.35 46.43L5.41 46.35L5.47 46.28L5.53 46.21L5.6 46.14L5.68 46.07L5.75 46.01L5.83 45.94L5.92 45.88L6 45.82L6.09 45.77L6.18 45.71L6.28 45.66L6.38 45.6L6.48 45.55L6.58 45.5L6.69 45.46L6.8 45.41L6.91 45.37L7.02 45.32L7.14 45.28L7.26 45.24L7.37 45.2L7.5 45.17L7.62 45.13L7.74 45.1L7.87 45.06L8 45.03L8.13 45L16.24 42.84L16.45 42.16L16.98 40.66L17.57 39.19L18.21 37.74L18.91 36.33L18.99 36.19L14.78 28.93L14.72 28.8L14.66 28.68L14.6 28.57L14.54 28.45L14.49 28.33L14.43 28.21L14.38 28.1L14.33 27.99L14.28 27.87L14.23 27.76L14.18 27.65L14.14 27.54L14.1 27.43L14.06 27.32L14.02 27.21L13.99 27.11L13.96 27L13.93 26.9L13.91 26.8L13.89 26.7L13.87 26.6L13.86 26.5L13.85 26.4L13.84 26.3L13.84 26.21L13.84 26.12L13.84 26.02L13.85 25.93L13.86 25.84L13.88 25.75L13.91 25.67L13.93 25.58L13.97 25.5L14 25.41L14.05 25.33L14.09 25.25L14.15 25.17L14.21 25.1L14.27 25.02L14.34 24.95L24.95 14.34L25.02 14.27L25.1 14.21L25.18 14.15L25.26 14.09L25.34 14.04L25.42 14L25.51 13.96L25.59 13.92L25.68 13.89L25.77 13.87L25.86 13.85L25.95 13.83L26.05 13.82L26.14 13.81L26.24 13.81L26.34 13.81L26.44 13.81L26.54 13.82L26.64 13.83L26.74 13.85L26.84 13.86L26.95 13.89L27.05 13.91L27.16 13.94L27.26 13.97L27.37 14.01L27.48 14.05L27.59 14.09L27.7 14.13L27.81 14.18L27.92 14.23L28.03 14.28L28.14 14.34L28.25 14.4L28.36 14.46L28.48 14.52L28.59 14.58L28.7 14.65L28.81 14.71L28.93 14.78L36.19 18.99L36.33 18.91L37.74 18.21L39.19 17.57L40.66 16.98L42.16 16.45L42.84 16.24L45 8.13L45.03 8L45.06 7.87L45.1 7.74L45.13 7.62L45.17 7.5L45.2 7.37L45.24 7.26L45.28 7.14L45.32 7.02L45.37 6.91L45.41 6.8L45.46 6.69L45.5 6.58L45.55 6.48L45.6 6.38L45.66 6.28L45.71 6.18L45.77 6.09L45.82 6L45.88 5.92L45.94 5.83L46.01 5.75L46.07 5.68L46.14 5.6L46.21 5.53L46.28 5.47L46.35 5.41L46.43 5.35L46.5 5.3L46.58 5.25L46.66 5.2L46.75 5.16L46.83 5.12L46.92 5.09L47.01 5.06L47.11 5.04L47.2 5.02L47.3 5.01L47.4 5L47.5 5L62.5 5L62.6 5L62.7 5.01ZM53.21 33.2L52.32 33.29L51.45 33.41L50.59 33.57L49.74 33.76L48.91 33.98L48.09 34.24L47.28 34.53L46.49 34.84L45.71 35.19L44.95 35.57L44.2 35.97L43.48 36.4L42.77 36.86L42.08 37.35L41.41 37.86L40.76 38.39L40.14 38.95L39.53 39.53L38.95 40.14L38.39 40.76L37.86 41.41L37.35 42.08L36.86 42.77L36.4 43.48L35.97 44.2L35.57 44.95L35.19 45.71L34.84 46.49L34.53 47.28L34.24 48.09L33.98 48.91L33.76 49.74L33.57 50.59L33.41 51.45L33.29 52.32L33.2 53.21L33.14 54.1L33.13 55L33.14 55.9L33.2 56.79L33.29 57.68L33.41 58.55L33.57 59.41L33.76 60.26L33.98 61.09L34.24 61.91L34.53 62.72L34.84 63.51L35.19 64.29L35.57 65.05L35.97 65.8L36.4 66.52L36.86 67.23L37.35 67.92L37.86 68.59L38.39 69.24L38.95 69.86L39.53 70.47L40.14 71.05L40.76 71.61L41.41 72.14L42.08 72.65L42.77 73.14L43.48 73.6L44.2 74.03L44.95 74.43L45.71 74.81L46.49 75.16L47.28 75.47L48.09 75.76L48.91 76.02L49.74 76.24L50.59 76.43L51.45 76.59L52.32 76.71L53.21 76.8L54.1 76.86L55 76.88L55.9 76.86L56.79 76.8L57.68 76.71L58.55 76.59L59.41 76.43L60.26 76.24L61.09 76.02L61.91 75.76L62.72 75.47L63.51 75.16L64.29 74.81L65.05 74.43L65.8 74.03L66.52 73.6L67.23 73.14L67.92 72.65L68.59 72.14L69.24 71.61L69.86 71.05L70.47 70.47L71.05 69.86L71.61 69.24L72.14 68.59L72.65 67.92L73.14 67.23L73.6 66.52L74.03 65.8L74.43 65.05L74.81 64.29L75.16 63.51L75.47 62.72L75.76 61.91L76.02 61.09L76.24 60.26L76.43 59.41L76.59 58.55L76.71 57.68L76.8 56.79L76.86 55.9L76.88 55L76.86 54.1L76.8 53.21L76.71 52.32L76.59 51.45L76.43 50.59L76.24 49.74L76.02 48.91L75.76 48.09L75.47 47.28L75.16 46.49L74.81 45.71L74.43 44.95L74.03 44.2L73.6 43.48L73.14 42.77L72.65 42.08L72.14 41.41L71.61 40.76L71.05 40.14L70.47 39.53L69.86 38.95L69.24 38.39L68.59 37.86L67.92 37.35L67.23 36.86L66.52 36.4L65.8 35.97L65.05 35.57L64.29 35.19L63.51 34.84L62.72 34.53L61.91 34.24L61.09 33.98L60.26 33.76L59.41 33.57L58.55 33.41L57.68 33.29L56.79 33.2L55.9 33.14L55 33.13L54.1 33.14L53.21 33.2Z" id="birC5PIaO" fill="white" fill-opacity="1" filter="url(#shadow16365564)"></path></g></g></g></svg>
